<svg id="mermaid-1624537086735" width="100%" xmlns="http://www.w3.org/2000/svg" xmlns:xlink="http://www.w3.org/1999/xlink" height="442" style="max-width: 2740.375px;" viewBox="-20 -20 2740.375 442"><style>#mermaid-1624537086735{font-family:"trebuchet ms",verdana,arial,sans-serif;font-size:16px;fill:#333;}#mermaid-1624537086735 .error-icon{fill:#552222;}#mermaid-1624537086735 .error-text{fill:#552222;stroke:#552222;}#mermaid-1624537086735 .edge-thickness-normal{stroke-width:2px;}#mermaid-1624537086735 .edge-thickness-thick{stroke-width:3.5px;}#mermaid-1624537086735 .edge-pattern-solid{stroke-dasharray:0;}#mermaid-1624537086735 .edge-pattern-dashed{stroke-dasharray:3;}#mermaid-1624537086735 .edge-pattern-dotted{stroke-dasharray:2;}#mermaid-1624537086735 .marker{fill:#333333;stroke:#333333;}#mermaid-1624537086735 .marker.cross{stroke:#333333;}#mermaid-1624537086735 svg{font-family:"trebuchet ms",verdana,arial,sans-serif;font-size:16px;}#mermaid-1624537086735 g.classGroup text{fill:#9370DB;fill:#131300;stroke:none;font-family:"trebuchet ms",verdana,arial,sans-serif;font-size:10px;}#mermaid-1624537086735 g.classGroup text .title{font-weight:bolder;}#mermaid-1624537086735 .classTitle{font-weight:bolder;}#mermaid-1624537086735 .node rect,#mermaid-1624537086735 .node circle,#mermaid-1624537086735 .node ellipse,#mermaid-1624537086735 .node polygon,#mermaid-1624537086735 .node path{fill:#ECECFF;stroke:#9370DB;stroke-width:1px;}#mermaid-1624537086735 .divider{stroke:#9370DB;stroke:1;}#mermaid-1624537086735 g.clickable{cursor:pointer;}#mermaid-1624537086735 g.classGroup rect{fill:#ECECFF;stroke:#9370DB;}#mermaid-1624537086735 g.classGroup line{stroke:#9370DB;stroke-width:1;}#mermaid-1624537086735 .classLabel .box{stroke:none;stroke-width:0;fill:#ECECFF;opacity:0.5;}#mermaid-1624537086735 .classLabel .label{fill:#9370DB;font-size:10px;}#mermaid-1624537086735 .relation{stroke:#333333;stroke-width:1;fill:none;}#mermaid-1624537086735 .dashed-line{stroke-dasharray:3;}#mermaid-1624537086735 #compositionStart,#mermaid-1624537086735 .composition{fill:#333333 !important;stroke:#333333 !important;stroke-width:1;}#mermaid-1624537086735 #compositionEnd,#mermaid-1624537086735 .composition{fill:#333333 !important;stroke:#333333 !important;stroke-width:1;}#mermaid-1624537086735 #dependencyStart,#mermaid-1624537086735 .dependency{fill:#333333 !important;stroke:#333333 !important;stroke-width:1;}#mermaid-1624537086735 #dependencyStart,#mermaid-1624537086735 .dependency{fill:#333333 !important;stroke:#333333 !important;stroke-width:1;}#mermaid-1624537086735 #extensionStart,#mermaid-1624537086735 .extension{fill:#333333 !important;stroke:#333333 !important;stroke-width:1;}#mermaid-1624537086735 #extensionEnd,#mermaid-1624537086735 .extension{fill:#333333 !important;stroke:#333333 !important;stroke-width:1;}#mermaid-1624537086735 #aggregationStart,#mermaid-1624537086735 .aggregation{fill:#ECECFF !important;stroke:#333333 !important;stroke-width:1;}#mermaid-1624537086735 #aggregationEnd,#mermaid-1624537086735 .aggregation{fill:#ECECFF !important;stroke:#333333 !important;stroke-width:1;}#mermaid-1624537086735 .edgeTerminals{font-size:11px;}#mermaid-1624537086735:root{--mermaid-font-family:"trebuchet ms",verdana,arial,sans-serif;}</style><g></g><defs><marker id="extensionStart" class="extension" refX="0" refY="7" markerWidth="190" markerHeight="240" orient="auto"><path d="M 1,7 L18,13 V 1 Z"></path></marker></defs><defs><marker id="extensionEnd" refX="19" refY="7" markerWidth="20" markerHeight="28" orient="auto"><path d="M 1,1 V 13 L18,7 Z"></path></marker></defs><defs><marker id="compositionStart" class="extension" refX="0" refY="7" markerWidth="190" markerHeight="240" orient="auto"><path d="M 18,7 L9,13 L1,7 L9,1 Z"></path></marker></defs><defs><marker id="compositionEnd" refX="19" refY="7" markerWidth="20" markerHeight="28" orient="auto"><path d="M 18,7 L9,13 L1,7 L9,1 Z"></path></marker></defs><defs><marker id="aggregationStart" class="extension" refX="0" refY="7" markerWidth="190" markerHeight="240" orient="auto"><path d="M 18,7 L9,13 L1,7 L9,1 Z"></path></marker></defs><defs><marker id="aggregationEnd" refX="19" refY="7" markerWidth="20" markerHeight="28" orient="auto"><path d="M 18,7 L9,13 L1,7 L9,1 Z"></path></marker></defs><defs><marker id="dependencyStart" class="extension" refX="0" refY="7" markerWidth="190" markerHeight="240" orient="auto"><path d="M 5,7 L9,13 L1,7 L9,1 Z"></path></marker></defs><defs><marker id="dependencyEnd" refX="19" refY="7" markerWidth="20" markerHeight="28" orient="auto"><path d="M 18,7 L9,13 L14,7 L9,1 Z"></path></marker></defs><g id="classid-NFTLabStoreEthereum-0" class="classGroup" transform="translate(265.9609375,200.5 )"><rect x="0" y="0" width="119.015625" height="30" class=" "></rect><text y="15" x="0"><tspan class="title" x="5">NFTLabStoreEthereum</tspan></text><line x1="0" y1="21" y2="21" x2="119.015625"></line><text x="5" y="31" fill="white" class="classText"></text><line x1="0" y1="26" y2="26" x2="119.015625"></line><text x="5" y="41" fill="white" class="classText"></text></g><g id="classid-NFTLabStoreHotmoka-1" class="classGroup" transform="translate(2059.9296875,200.5 )"><rect x="0" y="0" width="116" height="30" class=" "></rect><text y="15" x="0"><tspan class="title" x="5">NFTLabStoreHotmoka</tspan></text><line x1="0" y1="21" y2="21" x2="116"></line><text x="5" y="31" fill="white" class="classText"></text><line x1="0" y1="26" y2="26" x2="116"></line><text x="5" y="41" fill="white" class="classText"></text></g><g id="classid-NFTContractService-2" class="classGroup" transform="translate(690.9375,167 )"><rect x="0" y="0" width="435.28125" height="97" class=" "></rect><text y="15" x="0"><tspan x="192.6796875">«interface»</tspan><tspan class="title" dy="10" x="169.3515625">NFTContractService</tspan></text><line x1="0" y1="31" y2="31" x2="435.28125"></line><text x="5" y="41" fill="white" class="classText"></text><line x1="0" y1="36" y2="36" x2="435.28125"></line><text x="5" y="51" fill="white" class="classText"><tspan x="5">+mint(UserTuple artist, ByteArrayResource file) : NFTID</tspan><tspan x="5" dy="10">+transfer(BigInteger tokenId, UserTuple seller, UserTuple buyer, String price, String timestamp)</tspan><tspan x="5" dy="10">+getHistory(BigInteger tokenId) : List&lt;INFTTransaction&gt;</tspan><tspan x="5" dy="10">+getNFTById(BigInteger tokenId) : INFTLab</tspan><tspan x="5" dy="10">+getNFTByHash(String hash) : INFTLab</tspan></text></g><g id="classid-INFTLab-3" class="classGroup" transform="translate(624.8125,338 )"><rect x="0" y="0" width="99.484375" height="40" class=" "></rect><text y="15" x="0"><tspan x="24.78125">«interface»</tspan><tspan class="title" dy="10" x="29.734375">INFTLab</tspan></text><line x1="0" y1="31" y2="31" x2="99.484375"></line><text x="5" y="41" fill="white" class="classText"></text><line x1="0" y1="36" y2="36" x2="99.484375"></line><text x="5" y="51" fill="white" class="classText"></text></g><g id="classid-INFTTransaction-4" class="classGroup" transform="translate(774.296875,338 )"><rect x="0" y="0" width="137.828125" height="40" class=" "></rect><text y="15" x="0"><tspan x="43.953125">«interface»</tspan><tspan class="title" dy="10" x="29.734375">INFTTransaction</tspan></text><line x1="0" y1="31" y2="31" x2="137.828125"></line><text x="5" y="41" fill="white" class="classText"></text><line x1="0" y1="36" y2="36" x2="137.828125"></line><text x="5" y="51" fill="white" class="classText"></text></g><g id="classid-NFTID-5" class="classGroup" transform="translate(962.125,314 )"><rect x="0" y="0" width="194.25" height="88" class=" "></rect><text y="15" x="0"><tspan class="title" x="82.3984375">NFTID</tspan></text><line x1="0" y1="21" y2="21" x2="194.25"></line><text x="5" y="31" fill="white" class="classText"><tspan x="5">-String hash</tspan><tspan x="5" dy="10">-BigInteger tokenId</tspan></text><line x1="0" y1="47" y2="47" x2="194.25"></line><text x="5" y="62" fill="white" class="classText"><tspan x="5">+NFTID(String hash, BigInteger tokenId)</tspan><tspan x="5" dy="10">+hash() : String</tspan><tspan x="5" dy="10">+tokenId() : BigInteger</tspan></text></g><g id="classid-UserTuple-6" class="classGroup" transform="translate(1206.375,314 )"><rect x="0" y="0" width="189.4375" height="88" class=" "></rect><text y="15" x="0"><tspan class="title" x="70.4140625">UserTuple</tspan></text><line x1="0" y1="21" y2="21" x2="189.4375"></line><text x="5" y="31" fill="white" class="classText"><tspan x="5">-String wallet</tspan><tspan x="5" dy="10">-BigInteger id</tspan></text><line x1="0" y1="47" y2="47" x2="189.4375"></line><text x="5" y="62" fill="white" class="classText"><tspan x="5">+UserTuple(String wallet, BigInteger id)</tspan><tspan x="5" dy="10">+wallet() : String</tspan><tspan x="5" dy="10">+id() : BigInteger</tspan></text></g><g id="classid-NFTDummyContractService-7" class="classGroup" transform="translate(700.9375,10 )"><rect x="0" y="0" width="435.28125" height="97" class=" "></rect><text y="15" x="0"><tspan class="title" x="151.0078125">NFTDummyContractService</tspan></text><line x1="0" y1="21" y2="21" x2="435.28125"></line><text x="5" y="31" fill="white" class="classText"></text><line x1="0" y1="26" y2="26" x2="435.28125"></line><text x="5" y="41" fill="white" class="classText"><tspan x="5">+NFTDummyContractService(IPFSService ipfsService)</tspan><tspan x="5" dy="10">+mint(UserTuple artist, ByteArrayResource file) : NFTID</tspan><tspan x="5" dy="10">+transfer(BigInteger tokenId, UserTuple seller, UserTuple buyer, String price, String timestamp)</tspan><tspan x="5" dy="10">+getHistory(BigInteger tokenId) : List&lt;INFTTransaction&gt;</tspan><tspan x="5" dy="10">+getNFTById(BigInteger tokenId) : INFTLab</tspan><tspan x="5" dy="10">+getNFTByHash(String hash) : INFTLab</tspan></text></g><g id="classid-IPFSService-8" class="classGroup" transform="translate(1406.53125,187 )"><rect x="0" y="0" width="210.9375" height="57" class=" "></rect><text y="15" x="0"><tspan x="80.5078125">«interface»</tspan><tspan class="title" dy="10" x="76.3359375">IPFSService</tspan></text><line x1="0" y1="31" y2="31" x2="210.9375"></line><text x="5" y="41" fill="white" class="classText"></text><line x1="0" y1="36" y2="36" x2="210.9375"></line><text x="5" y="51" fill="white" class="classText"><tspan x="5">+upload(ByteArrayResource file) : Uploaded</tspan></text></g><g id="classid-NFTETHContractService-9" class="classGroup" transform="translate(0,0 )"><rect x="0" y="0" width="650.9375" height="117" class=" "></rect><text y="15" x="0"><tspan class="title" x="267.1796875">NFTETHContractService</tspan></text><line x1="0" y1="21" y2="21" x2="650.9375"></line><text x="5" y="31" fill="white" class="classText"></text><line x1="0" y1="26" y2="26" x2="650.9375"></line><text x="5" y="41" fill="white" class="classText"><tspan x="5">NFTETHContractService(NFTLabStoreEthereum contractService, IPFSService ipfsService)</tspan><tspan x="5" dy="10">+mint(UserTuple artist, ByteArrayResource file) : NFTID</tspan><tspan x="5" dy="10">+transfer(BigInteger tokenId, UserTuple seller, UserTuple buyer, String price, String timestamp)</tspan><tspan x="5" dy="10">+getHistory(BigInteger tokenId) : List&lt;INFTTransaction&gt;</tspan><tspan x="5" dy="10">+getNFTById(BigInteger tokenId) : INFTLab</tspan><tspan x="5" dy="10">+getNFTByHash(String hash) : INFTLab</tspan><tspan x="5" style="text-decoration:underline;" dy="10">+load(String contractAddress, Web3j web3j, Credentials credentials, ContractGasProvider contractGasProvider) : NFTLabStoreEthereum</tspan><tspan x="5" style="text-decoration:underline;" dy="10">+deploy(Web3j web3j, Credentials credentials, ContractGasProvider contractGasProvider, String name, String symbol) : NFTLabStoreEthereum</tspan></text></g><g id="classid-NFTHotmokaContractService-10" class="classGroup" transform="translate(1236.890625,5 )"><rect x="0" y="0" width="969.5" height="107" class=" "></rect><text y="15" x="0"><tspan class="title" x="415.0703125">NFTHotmokaContractService</tspan></text><line x1="0" y1="21" y2="21" x2="969.5"></line><text x="5" y="31" fill="white" class="classText"></text><line x1="0" y1="26" y2="26" x2="969.5"></line><text x="5" y="41" fill="white" class="classText"><tspan x="5">+mint(UserTuple artist, ByteArrayResource file) : NFTID</tspan><tspan x="5" dy="10">+transfer(BigInteger tokenId, UserTuple seller, UserTuple buyer, String price, String timestamp)</tspan><tspan x="5" dy="10">+getHistory(BigInteger tokenId) : List&lt;INFTTransaction&gt;</tspan><tspan x="5" dy="10">+getNFTById(BigInteger tokenId) : INFTLab</tspan><tspan x="5" dy="10">+getNFTByHash(String hash) : INFTLab</tspan><tspan x="5" style="text-decoration:underline;" dy="10">+load(String url,String accountAddress,BigInteger defaultGasLimit,BigInteger defaultGasPrice,String classpath,String nftLabStoreAddress) : NFTLabStoreHotmoka</tspan><tspan x="5" style="text-decoration:underline;" dy="10">+deploy(String url, String accountAddress, BigInteger defaultGasLimit, BigInteger defaultGasPrice, String smartContractHotmokaPath, String erc721HotmokaPath, String name, String symbol) : NFTLabStoreHotmoka</tspan></text></g><g id="classid-Uploaded-11" class="classGroup" transform="translate(1727.98046875,319.5 )"><rect x="0" y="0" width="124.953125" height="77" class=" "></rect><text y="15" x="0"><tspan x="37.515625">«interface»</tspan><tspan class="title" dy="10" x="39.6875">Uploaded</tspan></text><line x1="0" y1="31" y2="31" x2="124.953125"></line><text x="5" y="41" fill="white" class="classText"></text><line x1="0" y1="36" y2="36" x2="124.953125"></line><text x="5" y="51" fill="white" class="classText"><tspan x="5">+getHash() : String</tspan><tspan x="5" dy="10">+getSize() : int</tspan><tspan x="5" dy="10">+getTimestamp() : String</tspan></text></g><g id="classid-IPFSPinataService-12" class="classGroup" transform="translate(2256.390625,4.5 )"><rect x="0" y="0" width="443.984375" height="108" class=" "></rect><text y="15" x="0"><tspan class="title" x="177.859375">IPFSPinataService</tspan></text><line x1="0" y1="21" y2="21" x2="443.984375"></line><text x="5" y="31" fill="white" class="classText"><tspan x="5">-String baseUrl</tspan><tspan x="5" dy="10">-String apiKey</tspan><tspan x="5" dy="10">-String secretKey</tspan><tspan x="5" dy="10">-RestTemplate restTemplate</tspan></text><line x1="0" y1="67" y2="67" x2="443.984375"></line><text x="5" y="82" fill="white" class="classText"><tspan x="5">+IPFSPinataService(String baseUrl, String apiKey, String secretKey, RestTemplate restTemplate)</tspan><tspan x="5" dy="10">+upload(ByteArrayResource file) : Uploaded</tspan><tspan x="5" dy="10">-getHeader() : HttpHeaders</tspan></text></g><g id="classid-PinataUploaded-13" class="classGroup" transform="translate(2225.9296875,185 )"><rect x="0" y="0" width="99.265625" height="61" class=" "></rect><text y="15" x="0"><tspan class="title" x="11.84375">PinataUploaded</tspan></text><line x1="0" y1="21" y2="21" x2="99.265625"></line><text x="5" y="31" fill="white" class="classText"><tspan x="5">+String IpfsHash</tspan><tspan x="5" dy="10">+int PinSize</tspan><tspan x="5" dy="10">+String Timestamp</tspan></text><line x1="0" y1="57" y2="57" x2="99.265625"></line><text x="5" y="72" fill="white" class="classText"></text></g><path d="M754.1544961734694,264L740.8878613945577,268.1666666666667C727.6212266156463,272.3333333333333,701.0879570578231,280.6666666666667,687.8213222789115,293C674.5546875,305.3333333333333,674.5546875,321.6666666666667,674.5546875,329.8333333333333L674.5546875,338" id="edge0" class="relation dashed-line" marker-end="url(#dependencyEnd)"></path><path d="M865.444674744898,264L861.7390518707483,268.1666666666667C858.0334289965986,272.3333333333333,850.6221832482993,280.6666666666667,846.9165603741498,293C843.2109375,305.3333333333333,843.2109375,321.6666666666667,843.2109375,329.8333333333333L843.2109375,338" id="edge1" class="relation dashed-line" marker-end="url(#dependencyEnd)"></path><path d="M1008.0010629251701,264L1016.5425524376418,268.1666666666667C1025.0840419501135,272.3333333333333,1042.1670209750566,280.6666666666667,1050.7085104875284,289C1059.25,297.3333333333333,1059.25,305.6666666666667,1059.25,309.8333333333333L1059.25,314" id="edge2" class="relation dashed-line" marker-end="url(#dependencyEnd)"></path><path d="M1126.21875,256.2540105887505L1155.3645833333333,261.7116754906254C1184.5104166666667,267.1693403925003,1242.8020833333333,278.08467019625016,1271.9479166666667,287.70900176479176C1301.09375,297.3333333333333,1301.09375,305.6666666666667,1301.09375,309.8333333333333L1301.09375,314" id="edge3" class="relation dashed-line" marker-end="url(#dependencyEnd)"></path><path d="M912.7697417664671,107L912.0711389720559,112.83333333333333C911.3725361776447,118.66666666666667,909.9753305888224,130.33333333333334,909.2767277944112,140.33333333333334C908.578125,150.33333333333334,908.578125,158.66666666666666,908.578125,162.83333333333334L908.578125,167" id="edge4" class="relation dashed-line" marker-end="url(#extensionEnd)"></path><path d="M1136.21875,102.09420154050864L1169.4231770833333,108.74516795042386C1202.6276041666667,115.39613436033909,1269.0364583333333,128.69806718016955,1320.2566698554422,142.84903359008476C1371.476881377551,157,1407.508450255102,172,1425.5242346938776,179.5L1443.540019132653,187" id="edge5" class="relation" marker-end="url(#dependencyEnd)"></path><g class="classLabel"><rect class="box" x="1266.28125" y="122.03125" width="54.359375" height="16.015625"></rect><text class="label" x="1293.2355115071985" y="133.54522474163565" fill="red" text-anchor="middle">ipfsService</text></g><path d="M311.45677395209583,117L310.45876996007985,121.16666666666667C309.46076596806387,125.33333333333333,307.4647579840319,133.66666666666666,370.7115456586826,145.6627460124183C433.9583333333333,157.6588253581699,562.4479166666666,173.3176507163398,626.6927083333334,181.14706339542474L690.9375,188.9764760745097" id="edge6" class="relation dashed-line" marker-end="url(#extensionEnd)"></path><path d="M404.6227311002994,117L410.2604790419162,121.16666666666667C415.898226983533,125.33333333333333,427.17372286676647,133.66666666666666,594.1584760167166,148.87985771758682C761.1432291666666,164.09304876850697,1083.8372395833333,186.18609753701392,1245.1842447916667,197.23262192126742L1406.53125,208.2791463055209" id="edge7" class="relation" marker-end="url(#dependencyEnd)"></path><g class="classLabel"><rect class="box" x="874.546875" y="162.1875" width="54.359375" height="16.015625"></rect><text class="label" x="901.5082366657876" y="173.70305346634984" fill="red" text-anchor="middle">ipfsService</text></g><path d="M418.6347071482036,117L425.27045908183635,121.16666666666667C431.90621101546907,125.33333333333333,445.17771488273456,133.66666666666666,434.17320055361216,147.58333333333334C423.1686862244898,161.5,387.8881536989796,181,370.2478874362245,190.75L352.6076211734694,200.5" id="edge8" class="relation" marker-end="url(#dependencyEnd)"></path><g class="classLabel"><rect class="box" x="389.140625" y="148.375" width="74.359375" height="16.015625"></rect><text class="label" x="426.10145326204724" y="159.87902227833388" fill="red" text-anchor="middle">contractService</text></g><path d="M1596.347609468563,112L1584.6379818488024,117C1572.928354229042,122,1549.509098989521,132,1471.1542890780938,144.93251488142303C1392.7994791666667,157.8650297628461,1259.5091145833333,173.7300595256922,1192.8639322916667,181.66257440711524L1126.21875,189.5950892885383" id="edge9" class="relation dashed-line" marker-end="url(#extensionEnd)"></path><path d="M1658.3271191991018,112L1652.4099691242516,117C1646.492819049401,122,1634.6585188997005,132,1617.43277507485,144.5C1600.20703125,157,1577.58984375,172,1566.28125,179.5L1554.97265625,187" id="edge10" class="relation" marker-end="url(#dependencyEnd)"></path><g class="classLabel"><rect class="box" x="1581.3125" y="140.140625" width="54.359375" height="16.015625"></rect><text class="label" x="1608.2664017664665" y="151.654925253328" fill="red" text-anchor="middle">ipfsService</text></g><path d="M1783.620134730539,112L1789.412612275449,117C1795.205089820359,122,1806.7900449101796,132,1852.8416370384232,146.87814594580496C1898.8932291666667,161.75629189160995,1979.4114583333333,181.51258378321987,2019.6705729166667,191.39072972902486L2059.9296875,201.26887567482981" id="edge11" class="relation" marker-end="url(#dependencyEnd)"></path><g class="classLabel"><rect class="box" x="1879.890625" y="154.65625" width="74.375" height="16.015625"></rect><text class="label" x="1916.857705105826" y="166.16413138344964" fill="red" text-anchor="middle">contractService</text></g><path d="M1512,244L1512,251.5C1512,259,1512,274,1547.9967447916667,290.4197797573122C1583.9934895833333,306.8395595146244,1655.9869791666667,324.6791190292488,1691.9837239583333,333.598898786561L1727.98046875,342.5186785438732" id="edge12" class="relation dashed-line" marker-end="url(#dependencyEnd)"></path><path d="M2478.3828125,112.5L2478.3828125,117.41666666666667C2478.3828125,122.33333333333333,2478.3828125,132.16666666666666,2334.8971354166665,147.9963971101428C2191.4114583333335,163.82612755361893,1904.4401041666667,185.65225510723783,1760.9544270833333,196.56531888404731L1617.46875,207.47838266085677" id="edge13" class="relation dashed-line" marker-end="url(#extensionEnd)"></path><path d="M2275.5625,246L2275.5625,253.16666666666666C2275.5625,260.3333333333333,2275.5625,274.6666666666667,2205.1243489583335,291.8522523828313C2134.6861979166665,309.0378380989959,1993.8098958333333,329.07567619799175,1923.3717447916667,339.0945952474897L1852.93359375,349.1135142969876" id="edge14" class="relation dashed-line" marker-end="url(#extensionEnd)"></path></svg>